Patient4_TMGait_0pt7_02_left_20_EMG.mot
version=1
nRows=20
nColumns=33
inDegrees=no
endheader
time	1LAddLong	2LGlutMax	3LGlutMed	4LIliopsoas	5LSemiMemb	6LBicFemLong	7LRecFem	8LVastMed	9LVastLat	10LGasMed	11LTibAnt	12lTibPost	13LPeroneusLong	14LSol	15LExtDigLong	16LFlexDigLong	17RAddLong	18RGlutMax	19RGlutMed	20RIliopsoas	21RSemiMemb	22RBicFemLong	23RRecFem	24RVastMed	25RVastLat	26RGasMed	27RTibAnt	28RTibPost	29RPeroneusLong	30RSol	31RExtDigLong	32RFlexDigLong
23.888	0.021362	0.24841	-0.053558	-0.004272	-0.005035	0.020294	-0.032654	0.004272	0.055237	-0.025024	-0.064545	-0.003204	0.15167	-0.11307	-0.091095	-0.000305	0.010986	0.006714	0.27618	0.10834	-0.087585	-0.034485	0.19699	-0.050049	0.067291	0.001068	0.079041	-0.29312	-0.18509	0.15747	0.000458	-0.00824
23.889	0.020752	0.24002	0.057983	0.008545	0.006409	0.03006	-0.025177	0.005951	0.081024	-0.015717	-0.043182	0.003815	0.13748	-0.12466	0.011597	0.014343	0.008392	0.057373	0.064697	0.053864	-0.30441	0.033875	0.2005	-0.12436	0.047302	-0.011139	0.041656	0.16464	-0.070648	0.10773	0.000305	0.000763
23.89	0.010071	0.20523	0.06073	0.002441	-0.017548	0.022583	-0.014954	0.018311	0.069885	-0.010376	0.002441	-0.000153	0.088654	-0.10223	0.10529	0.010376	-0.003662	0.055237	-0.12009	0.025177	-0.21042	0.084534	0.16007	-0.10941	0.048981	-0.023041	0.003815	0.086823	0.02182	-0.076294	0.000763	-0.016022
23.891	0.009003	0.14633	0.016022	-0.001831	-0.021667	0.01297	-0.020142	0.00946	0.060577	-0.020905	-0.027161	-0.001373	0.072479	-0.082092	0.14267	0.005798	-0.015717	0.033417	0.010071	-0.001831	0.02594	0.026245	0.089111	-0.057526	0.022278	-0.048065	0.01236	0.032043	-0.041351	-0.1387	0.00061	-0.008698
23.892	0.007324	0.15381	-0.015106	0.012512	-0.053864	0.016479	-0.002441	0.000458	0.055847	-0.023651	0	0.004578	0.072479	-0.02533	0.16205	0.00412	-0.019836	0.038605	0.063629	0.03006	0.029144	-0.10452	0.052948	-0.015564	0.0354	-0.050354	0.018616	-0.021057	-0.10376	-0.14511	-0.003967	-0.001373
23.893	0.014648	0.15045	-0.011139	0.007324	-0.036011	0.000458	0.005798	0.01297	0.065308	-0.014343	0.02121	0.008087	0.058746	0.058136	0.15671	-0.004883	-0.023193	0.092468	0.16266	-0.016022	0.075684	-0.092163	-0.072632	-0.043945	0.10544	-0.032196	-0.031433	-0.3122	0.058289	0.009155	-0.000763	0.005646
23.894	0.020294	0.13992	-0.03952	0.007629	-0.007629	-0.016327	-0.030975	0.009155	0.06424	-0.026245	0.01297	0.005798	0.061646	0.037842	0.14465	0.007782	-0.024872	0.10437	0.18188	-0.23727	0.15121	-0.040436	-0.10284	-0.10834	0.13611	-0.002747	-0.000458	0.019073	0.091095	-0.29816	0.001984	0.005646
23.895	0.021667	0.1442	-0.053558	0.019836	-0.003815	-0.003662	-0.031281	0.003357	0.065155	-0.038605	0.007782	0.00412	0.06958	0.034943	0.10742	0.000153	-0.013123	0.090637	0.46646	-0.40985	0.10315	-0.049133	0.17303	0.013123	0.067749	0.005646	0.052185	0.14664	0.13672	-0.49927	-0.001373	-0.000153
23.896	0.024567	0.12131	-0.039063	-0.003357	0.016785	0.009918	-0.02121	0.00946	0.042114	-0.047913	-0.01358	0.001373	0.066071	0.04776	0.077515	0.001526	-0.007782	0.094299	0.17075	-0.32532	0.09079	0.00824	0.39093	0.009155	-0.03006	0.010071	0.0354	0.043488	0.21973	-0.038605	-0.000153	0.011749
23.897	0.01358	0.085449	-0.04715	0.00473	0.010223	0.031433	-0.011444	0.005341	0.049438	-0.051727	-0.01297	0.004425	0.079041	0.022888	0.002289	0.001526	-0.013885	0.17059	-0.063477	-0.1297	0.059509	0.036774	0.32227	0.010681	-0.13153	-0.009003	0.042877	0.025177	0.11581	0.19714	-0.001373	0.008392
23.898	0.011902	0.077667	-0.018158	0.005341	0.024414	0.029602	-0.017853	0.005035	0.054626	-0.049286	-0.0177	0.005646	0.069885	0.006866	-0.02533	0.003052	-0.001831	0.17563	-0.048676	0.13504	0.048065	0.054321	0.32044	0.46066	-0.15533	-0.019226	0.008392	0.006866	0.013275	-0.014191	-0.001221	0.003967
23.899	0.019379	0.088806	-0.006866	0.007172	0.029907	0.053864	-0.019836	0.001984	0.053711	-0.04364	0.023651	0.002747	0.065308	0.026855	0.010071	0.004578	-0.002747	0.20905	-0.14206	0.24551	0.012512	0.024414	0.34622	0.89294	-0.24582	-0.011444	-0.018311	-0.008545	0.20309	-0.1384	-0.008392	0.003204
23.9	0.009918	0.088348	-0.033112	0.016632	-0.009613	0.05722	-0.014801	0.002441	0.035706	-0.05249	0.062103	-0.003204	0.089264	0.023804	0.00824	0.006256	0.011597	0.23163	-0.30243	0.33875	0.003052	0.029602	0.045471	0.64606	-0.25986	-0.012512	-0.009918	-0.044708	0.066376	0.19943	-0.005951	0.001984
23.901	0.008392	0.11444	-0.057678	-0.019989	-0.013428	0.048218	-0.040588	0.009003	0.04303	-0.041656	0.047455	0.000305	0.069122	0.022736	-0.002289	-0.004272	0.007629	0.31204	-0.26337	0.28778	0.048523	0.046082	-0.35248	0.29968	-0.018768	-0.009613	0.020752	-0.068512	-0.35141	0.10071	-0.000916	-0.002289
23.902	0.003815	0.062866	-0.039063	0.000916	-0.10239	0.002747	-0.030518	-0.001221	0.032959	-0.048218	-0.01297	0.00351	0.057526	0.030975	0.017395	0.019684	0.010529	0.27695	0.091705	0.23499	0.048065	0.024261	-0.63568	-0.29022	0.28244	0.002899	0.027618	0.001984	-0.23224	-0.13092	-0.000916	-0.003357
23.903	0.011139	0.007935	-0.01297	0.01358	-0.12848	-0.044098	-0.023499	0.016632	0.04303	-0.018616	0.006409	-0.000916	0.072632	0.046997	0.099182	0.001068	0.006866	0.21149	0.2301	0.15747	-0.001984	-0.021667	-0.51407	-0.64987	0.36331	-0.005341	-0.040131	-0.019684	0.81375	-0.063782	0.010529	-0.009613
23.904	0.024109	0.007172	-0.024261	-0.003052	-0.075378	-0.045471	-0.041809	-0.001984	0.041809	-0.011292	0.029602	0.005493	0.045166	0.017853	0.061951	0.000916	0.005035	0.22812	0.27741	0.094757	-0.020447	-0.062103	-0.21744	-0.70084	0.51544	-0.013275	-0.035095	0.030365	0.20493	0.24567	-0.000153	-0.006714
23.905	0.022888	0.05127	-0.074921	0.011749	-0.028381	-0.039368	-0.040741	-0.000305	0.037689	-0.020142	0.014496	0.002899	0.040588	-0.003052	0.002747	0.006866	-0.000916	0.23285	0.38193	0.13367	0.008545	-0.059509	-0.056915	-0.46722	0.39856	-0.012207	-0.010376	-0.001373	-0.40161	0.061646	-0.002289	-0.00061
23.906	0.019531	0.058289	-0.1593	0.001068	0.036621	-0.024109	-0.035248	-0.000305	0.032654	-0.016785	0.014954	0.004578	0.017242	-0.046082	0.034332	-0.002594	-0.019836	0.22537	0.049744	0.042267	0.007629	-0.054932	0.017548	-0.098572	0.19196	-0.013885	-0.019226	-0.004272	-0.71716	0.079193	0.000153	-0.009918
23.907	0.019073	0.068665	-0.16037	0.011292	0.047913	0.029297	-0.057831	0.003662	0.036316	-0.052185	0.011749	0.004883	0.014648	-0.04776	0.009613	0.001984	-0.012207	0.18417	-0.36758	0.006866	-0.24033	0.009766	0.050659	-0.063934	0.047913	-0.005188	0.027618	-0.015717	-0.23758	0.044708	-0.005493	-0.002289
